<svg xmlns="http://www.w3.org/2000/svg" viewBox="0 0 510 120" role="img" aria-labelledby="title desc">
  <title id="title">Denton Clinical Psychology</title>
  <desc id="desc">A modern Denton Clinical Psychology wordmark with an arched dotted growth symbol.</desc>
  <g transform="translate(8 8) scale(.88)">
    <path d="M10 88V43C10 22.6 24.3 8 42 8s32 14.6 32 35v45" fill="none" stroke="#164C3C" stroke-width="5.5" stroke-linecap="round"/>
    <path d="M5 88c17.2-2.7 34.5-2.7 52 0 8.4 1.3 15.7 1.1 22-.6" fill="none" stroke="#87A997" stroke-width="2.3" stroke-linecap="round"/>
    <g fill="#164C3C">
      <circle cx="42" cy="72" r="5"/><circle cx="42" cy="57" r="5"/><circle cx="42" cy="42" r="5"/>
      <circle cx="27" cy="38" r="5"/><circle cx="57" cy="38" r="5"/><circle cx="33.5" cy="27" r="5"/><circle cx="50.5" cy="27" r="5"/>
    </g>
    <circle cx="42" cy="17" r="5.5" fill="#C47D58"/>
  </g>
  <text x="96" y="59" fill="#173B32" font-family="Figtree, Avenir Next, Arial, sans-serif" font-size="55" font-weight="680" letter-spacing="-1.8">Denton</text>
  <text x="100" y="88" fill="#4F665E" font-family="Figtree, Avenir Next, Arial, sans-serif" font-size="15" font-weight="650" letter-spacing="5.1">CLINICAL PSYCHOLOGY</text>
  <line x1="100" y1="103" x2="194" y2="103" stroke="#87A997" stroke-width="1.5"/>
  <text x="208" y="108" fill="#7A8E87" font-family="Figtree, Avenir Next, Arial, sans-serif" font-size="12" font-weight="650" letter-spacing="2.2">EST. 2005</text>
  <line x1="296" y1="103" x2="390" y2="103" stroke="#87A997" stroke-width="1.5"/>
</svg>
